<svg width="24" height="23" viewBox="0 0 24 23" fill="none" xmlns="http://www.w3.org/2000/svg">
<path d="M1.10138 1.57842C1.86718 0.782419 3.13327 0.757937 3.92927 1.52374L22.6661 19.5496C23.4621 20.3154 23.4865 21.5815 22.7207 22.3775C21.9549 23.1735 20.6888 23.198 19.8928 22.4322L1.15606 4.40632C0.360055 3.64052 0.335573 2.37443 1.10138 1.57842Z" fill="#8AC527"/>
<path d="M1.39498 22.3577C0.624556 21.5662 0.641673 20.2999 1.43321 19.5295L20.0648 1.39493C20.8563 0.624506 22.1226 0.641623 22.893 1.43316C23.6634 2.22469 23.6463 3.49091 22.8547 4.26133L4.22314 22.3959C3.43161 23.1663 2.1654 23.1492 1.39498 22.3577Z" fill="#8AC527"/>
</svg>
